<mxfile host="Electron" modified="2023-09-05T20:16:14.901Z" agent="Mozilla/5.0 (X11; Linux x86_64) AppleWebKit/537.36 (KHTML, like Gecko) draw.io/21.4.0 Chrome/112.0.5615.204 Electron/24.5.1 Safari/537.36" etag="gnRvTkKUA6fSJJXMqQz6" version="21.4.0" type="device">
  <diagram name="Page-1" id="vau_yWoFF5kQ5Hp3Cnve">
    <mxGraphModel dx="1157" dy="725" grid="1" gridSize="10" guides="1" tooltips="1" connect="1" arrows="1" fold="1" page="1" pageScale="1" pageWidth="850" pageHeight="1100" math="0" shadow="0">
      <root>
        <mxCell id="0" />
        <mxCell id="1" parent="0" />
        <mxCell id="2Ana6TJQV3I6V6AW6g3j-8" style="edgeStyle=orthogonalEdgeStyle;rounded=0;orthogonalLoop=1;jettySize=auto;html=1;exitX=1;exitY=0.5;exitDx=0;exitDy=0;" edge="1" parent="1" source="2Ana6TJQV3I6V6AW6g3j-1" target="2Ana6TJQV3I6V6AW6g3j-3">
          <mxGeometry relative="1" as="geometry" />
        </mxCell>
        <mxCell id="2Ana6TJQV3I6V6AW6g3j-1" value="GIT repo&lt;br&gt;OSCAL&lt;br&gt;catalog" style="rounded=0;whiteSpace=wrap;html=1;fillColor=#B9E0A5;" vertex="1" parent="1">
          <mxGeometry x="40" y="160" width="120" height="60" as="geometry" />
        </mxCell>
        <mxCell id="2Ana6TJQV3I6V6AW6g3j-18" style="edgeStyle=orthogonalEdgeStyle;rounded=0;orthogonalLoop=1;jettySize=auto;html=1;exitX=0.75;exitY=1;exitDx=0;exitDy=0;entryX=0.5;entryY=0;entryDx=0;entryDy=0;" edge="1" parent="1" source="2Ana6TJQV3I6V6AW6g3j-3" target="2Ana6TJQV3I6V6AW6g3j-16">
          <mxGeometry relative="1" as="geometry">
            <Array as="points">
              <mxPoint x="410" y="300" />
              <mxPoint x="660" y="300" />
            </Array>
          </mxGeometry>
        </mxCell>
        <mxCell id="2Ana6TJQV3I6V6AW6g3j-19" style="edgeStyle=orthogonalEdgeStyle;rounded=0;orthogonalLoop=1;jettySize=auto;html=1;exitX=0.25;exitY=1;exitDx=0;exitDy=0;entryX=0.5;entryY=0;entryDx=0;entryDy=0;" edge="1" parent="1" source="2Ana6TJQV3I6V6AW6g3j-3" target="2Ana6TJQV3I6V6AW6g3j-5">
          <mxGeometry relative="1" as="geometry">
            <Array as="points">
              <mxPoint x="350" y="300" />
              <mxPoint x="380" y="300" />
            </Array>
          </mxGeometry>
        </mxCell>
        <mxCell id="2Ana6TJQV3I6V6AW6g3j-3" value="GIT repo&lt;br&gt;OSCAL&lt;br&gt;Profile" style="rounded=0;whiteSpace=wrap;html=1;fillColor=#B9E0A5;" vertex="1" parent="1">
          <mxGeometry x="320" y="160" width="120" height="60" as="geometry" />
        </mxCell>
        <mxCell id="2Ana6TJQV3I6V6AW6g3j-17" style="edgeStyle=orthogonalEdgeStyle;rounded=0;orthogonalLoop=1;jettySize=auto;html=1;exitX=1;exitY=0.5;exitDx=0;exitDy=0;entryX=0;entryY=0.5;entryDx=0;entryDy=0;" edge="1" parent="1" source="2Ana6TJQV3I6V6AW6g3j-5" target="2Ana6TJQV3I6V6AW6g3j-16">
          <mxGeometry relative="1" as="geometry" />
        </mxCell>
        <mxCell id="2Ana6TJQV3I6V6AW6g3j-5" value="GIT repo&lt;br&gt;OSCAL&lt;br&gt;component-definition" style="rounded=0;whiteSpace=wrap;html=1;fillColor=#B9E0A5;" vertex="1" parent="1">
          <mxGeometry x="320" y="320" width="120" height="60" as="geometry" />
        </mxCell>
        <mxCell id="2Ana6TJQV3I6V6AW6g3j-11" style="edgeStyle=orthogonalEdgeStyle;rounded=0;orthogonalLoop=1;jettySize=auto;html=1;exitX=0;exitY=0.5;exitDx=0;exitDy=0;entryX=1;entryY=0.5;entryDx=0;entryDy=0;" edge="1" parent="1" source="2Ana6TJQV3I6V6AW6g3j-7" target="2Ana6TJQV3I6V6AW6g3j-3">
          <mxGeometry relative="1" as="geometry" />
        </mxCell>
        <mxCell id="2Ana6TJQV3I6V6AW6g3j-7" value="GIT repo&lt;br&gt;OSCAL&lt;br&gt;mapping-collection" style="rounded=0;whiteSpace=wrap;html=1;fillColor=#B9E0A5;" vertex="1" parent="1">
          <mxGeometry x="600" y="160" width="120" height="60" as="geometry" />
        </mxCell>
        <mxCell id="2Ana6TJQV3I6V6AW6g3j-12" value="Trestle&lt;br&gt;Agile Authoring&lt;br&gt;Repo Release Automation" style="text;html=1;strokeColor=none;fillColor=none;align=center;verticalAlign=middle;whiteSpace=wrap;rounded=0;" vertex="1" parent="1">
          <mxGeometry x="285" y="70" width="190" height="30" as="geometry" />
        </mxCell>
        <mxCell id="2Ana6TJQV3I6V6AW6g3j-13" value="release&amp;nbsp;&lt;br&gt;updated&lt;br&gt;catalog" style="text;html=1;strokeColor=none;fillColor=none;align=center;verticalAlign=middle;whiteSpace=wrap;rounded=0;" vertex="1" parent="1">
          <mxGeometry x="200" y="150" width="70" height="30" as="geometry" />
        </mxCell>
        <mxCell id="2Ana6TJQV3I6V6AW6g3j-14" value="release&lt;br&gt;updated&lt;br&gt;mapping-collection" style="text;html=1;strokeColor=none;fillColor=none;align=center;verticalAlign=middle;whiteSpace=wrap;rounded=0;" vertex="1" parent="1">
          <mxGeometry x="470" y="150" width="110" height="30" as="geometry" />
        </mxCell>
        <mxCell id="2Ana6TJQV3I6V6AW6g3j-15" value="release&lt;br&gt;updated&lt;br&gt;profile" style="text;html=1;strokeColor=none;fillColor=none;align=center;verticalAlign=middle;whiteSpace=wrap;rounded=0;" vertex="1" parent="1">
          <mxGeometry x="345" y="240" width="70" height="30" as="geometry" />
        </mxCell>
        <mxCell id="2Ana6TJQV3I6V6AW6g3j-16" value="GIT repo&lt;br&gt;OSCAL&lt;br&gt;system-security-plan" style="rounded=0;whiteSpace=wrap;html=1;fillColor=#66FF66;" vertex="1" parent="1">
          <mxGeometry x="600" y="320" width="120" height="60" as="geometry" />
        </mxCell>
        <mxCell id="2Ana6TJQV3I6V6AW6g3j-20" value="release&lt;br&gt;updated&lt;br&gt;component-definition" style="text;html=1;strokeColor=none;fillColor=none;align=center;verticalAlign=middle;whiteSpace=wrap;rounded=0;" vertex="1" parent="1">
          <mxGeometry x="460" y="360" width="120" height="30" as="geometry" />
        </mxCell>
      </root>
    </mxGraphModel>
  </diagram>
</mxfile>
